# AST/ASF file generated using VICON BodyLanguage
# -----------------------------------------------
:version 1.10
:name VICON
:units
  mass 1.0
  length 0.45
  angle deg
:documentation
   .ast/.asf automatically generated from VICON data using
   VICON BodyBuilder and BodyLanguage model FoxedUp or BRILLIANT.MOD
:root
   order TX TY TZ RX RY RZ
   axis XYZ
   position 0 0 0  
   orientation 0 0 0 
:bonedata
  begin
     id 1 
     name lhipjoint
     direction 0.521689 -0.742065 0.420928 
     length 2.47002 
     axis 0 0 0  XYZ
  end
  begin
     id 2 
     name lfemur
     direction 0.34202 -0.939693 0  
     length 7.24654  
     axis 0 0 20  XYZ
    dof rx ry rz
    limits (-160.0 20.0)
           (-70.0 70.0)
           (-60.0 70.0)
  end
  begin
     id 3 
     name ltibia
     direction 0.34202 -0.939693 0   
     length 8.04849   
     axis 0 0 20   XYZ
    dof rx
    limits (-10.0 170.0)
  end
  begin
     id 4 
     name lfoot
     direction 0.0745411 -0.2048 0.975961   
     length 1.72367   
     axis -90 7.62852e-016 20   XYZ
    dof rx rz
    limits (-45.0 90.0)
           (-70.0 20.0)
  end
  begin
     id 5 
     name ltoes
     direction 1.53556e-011 -4.21901e-011 1   
     length 0.87311   
     axis -90 7.62852e-016 20   XYZ
    dof rx
    limits (-90.0 20.0)
  end
  begin
     id 6 
     name rhipjoint
     direction -0.52849 -0.738415 0.418857   
     length 2.48223  
     axis 0 0 0  XYZ 
  end
  begin
     id 7 
     name rfemur
     direction -0.34202 -0.939693 0   
     length 7.15571   
     axis 0 0 -20   XYZ
    dof rx ry rz
    limits (-160.0 20.0)
           (-70.0 70.0)
           (-70.0 60.0)
  end
  begin
     id 8 
     name rtibia
     direction -0.34202 -0.939693 0   
     length 7.81659   
     axis 0 0 -20   XYZ
    dof rx
    limits (-10.0 170.0)
 end
 begin
     id 9 
     name rfoot
     direction -0.0917348 -0.252039 0.963359   
     length 1.84382  
     axis -90 -7.62852e-016 -20   XYZ
    dof rx rz
    limits (-45.0 90.0)
           (-20.0 70.0)
  end
  begin
     id 10 
     name rtoes
     direction -1.53551e-011 -4.21879e-011 1   
     length 0.927771   
     axis -90 -7.62852e-016 -20   XYZ
    dof rx
    limits (-90.0 20.0)
  end
  begin
     id 11 
     name lowerback
     direction 0.00583058 0.999822 0.0179296   
     length 2.1429   
     axis 0 0 0   XYZ
    dof rx ry rz
    limits (-20.0 45.0)
           (-30.0 30.0)
           (-30.0 30.0)
  end
  begin
     id 12 
     name upperback
     direction -0.0137999 0.999752 -0.0175071   
     length 2.14252   
     axis 0 0 0   XYZ
    dof rx ry rz
    limits (-20.0 45.0)
           (-30.0 30.0)
           (-30.0 30.0)
  end
  begin
     id 13 
     name thorax
     direction -0.0158036 0.99955 -0.0254909   
     length 2.1383   
     axis 0 0 0   XYZ
    dof rx ry rz
    limits (-20.0 45.0)
           (-30.0 30.0)
           (-30.0 30.0)
  end
  begin
     id 14 
     name lowerneck
     direction -0.0101179 0.999403 -0.0330262   
     length 1.65808   
     axis 0 0 0   XYZ
    dof rx ry rz
    limits (-20.0 45.0)
           (-30.0 30.0)
           (-30.0 30.0)
  end
  begin
     id 15 
     name upperneck
     direction 0.0497734 0.995978 -0.074501   
     length 1.5897   
     axis 0 0 0   XYZ
    dof rx ry rz
    limits (-20.0 45.0)
           (-30.0 30.0)
           (-30.0 30.0)
  end
  begin
     id 16
     name head
     direction 0.0189524 0.999519 -0.0245438  
     length 1.74024  
     axis 0 0 0   XYZ
    dof rx ry rz
    limits (-20.0 45.0)
           (-30.0 30.0)
           (-30.0 30.0)
  end
  begin
     id 17 
     name lclavicle
     direction 0.945604 0.324422 0.0241537  
     length 3.59089  
     axis 0 0 0   XYZ
    dof ry rz
    limits (-20.0 10.0)
           (0.0 20.0)
  end
  begin
     id 18 
     name lhumerus
     direction 1 -4.48964e-011 -2.63524e-027   
     length 5.2391   
     axis 180 -30 -90   XYZ
    dof rx ry rz
    limits (-60.0 90.0)
           (-90.0 90.0)
           (-90.0 90.0)
  end
  begin
     id 19
     name lradius
     direction 1 -4.48969e-011 3.86978e-028   
     length 3.31467   
     axis 180 -30 -90   XYZ
    dof rx
    limits (-10.0 170.0)
  end
  begin
     id 20
     name lwrist
     direction 1 -4.48963e-011 7.20928e-028   
     length 1.65734   
     axis -5.52449e-016 90 90   XYZ
    dof ry
    limits (-180.0 0.0)
 end
  begin
     id 21 
     name lhand
     direction 1 -4.48964e-011 1.44186e-027   
     length 0.9659   
     axis -9.20027e-016 90 90   XYZ
    dof rx rz
    limits (-90.0 90.0)
           (-45.0 45.0)
  end
  begin
     id 22 
     name lfingers
     direction 1 -4.48965e-011 2.88371e-027   
     length 0.778733   
     axis -1.84005e-015 90 90   XYZ
    dof rx
    limits (0.0 90.0)
  end
  begin
     id 23
     name lthumb
     direction 0.707107 -6.34931e-011 0.707107   
     length 1.11811   
     axis -90 45 2.85299e-015   XYZ
    dof rx rz
    limits (-45.0 45.0)
           (-45.0 45.0)
  end
  begin
     id 24 
     name rclavicle
     direction -0.923762 0.370785 0.0958234   
     length 3.54196  
     axis 0 0 0   XYZ 
    dof ry rz
    limits (-10.0 20.0)
           (-20.0 0.0)
  end
  begin
     id 25 
     name rhumerus
     direction -1 -4.48966e-011 1.18702e-017  
     length 5.30252   
     axis 180 30 90   XYZ
    dof rx ry rz
    limits (-90.0 60.0)
           (-90.0 90.0)
           (-90.0 90.0)
  end
  begin
     id 26 
     name rradius
     direction -1 -4.48966e-011 4.46736e-027   
     length 3.67875   
     axis 180 30 90   XYZ
    dof rx
    limits (-10.0 170.0)
  end
  begin
     id 27 
     name rwrist
     direction -1 -4.48966e-011 7.20928e-028   
     length 1.83937   
     axis -5.52449e-016 -90 -90   XYZ
    dof ry
    limits (-180.0 0.0)
  end
  begin
     id 28
     name rhand
     direction -1 -4.48973e-011 1.44186e-027   
     length 0.594811   
     axis -9.20027e-016 -90 -90   XYZ
    dof rx rz
    limits (-90.0 90.0)
           (-45.0 45.0)
  end
  begin
     id 29
     name rfingers
     direction -1 -4.48963e-011 2.88371e-027   
     length 0.479552   
     axis -1.84005e-015 -90 -90   XYZ
    dof rx
    limits (0.0 90.0)
  end
  begin
     id 30
     name rthumb
     direction -0.707107 -6.34932e-011 0.707107   
     length 0.688544   
     axis -90 -45 -2.85299e-015   XYZ
    dof rx rz
    limits (-45.0 45.0)
           (-45.0 45.0)
  end
:hierarchy
  begin
    root lhipjoint rhipjoint lowerback
    lhipjoint lfemur
    lfemur ltibia
    ltibia lfoot
    lfoot ltoes
    rhipjoint rfemur
    rfemur rtibia
    rtibia rfoot
    rfoot rtoes
    lowerback upperback
    upperback thorax
    thorax lowerneck lclavicle rclavicle
    lowerneck upperneck
    upperneck head
    lclavicle lhumerus
    lhumerus lradius
    lradius lwrist
    lwrist lhand lthumb
    lhand lfingers
    rclavicle rhumerus
    rhumerus rradius
    rradius rwrist
    rwrist rhand rthumb
    rhand rfingers
  end

#!OML:ASF E:\acrobat2\Project_11_07_03\Capture day 1\Session 1\Acrobat.ASF
:FULLY-SPECIFIED
:DEGREES
543
root 8.7773 14.1873 -14.1519 194.386 -4.70883 -178.434
lowerback 5.21391 0.690586 1.13744
upperback 2.89902 0.817015 -0.695049
thorax 0.0838679 0.362929 -1.39197
lowerneck -0.353403 -2.99195 -0.977239
upperneck -14.0215 -4.57374 2.95086
head -4.46536 -2.70089 1.36267
rclavicle 6.26172e-015 -3.18055e-015
rhumerus 23.863 9.06202 -50.9863
rradius 32.6331
rwrist 2.94582
rhand -10.906 -38.091
rfingers 7.12502
rthumb 15.111 -427.519
lclavicle 6.26172e-015 -3.18055e-015
lhumerus -9.96309 -26.5691 79.897
lradius 23.6114
lwrist 11.2958
lhand -10.0154 346.687
lfingers 7.12502
lthumb 15.9688 16.0491
rfemur 178.933 -217.773 -203.981
rtibia -4.90174
rfoot -58.6043 -23.1016
rtoes 21.9908
lfemur -11.0347 -30.6081 35.4072
ltibia -6.49947
lfoot -41.9275 -22.2563
ltoes 59.6884
544
root 8.76947 14.1925 -14.2103 193.901 -4.8597 -178.328
lowerback 5.00513 0.581009 1.30239
upperback 2.68272 0.695281 -0.685481
thorax -0.0241605 0.309488 -1.46767
lowerneck -0.488956 -2.91727 -0.947727
upperneck -13.4868 -4.4172 3.03367
head -4.24539 -2.60516 1.35934
rclavicle -1.82882e-014 1.11319e-014
rhumerus 23.4127 9.05202 -50.882
rradius 33.2694
rwrist 2.87625
rhand -11.3065 -37.8722
rfingers 7.12502
rthumb 14.7252 -427.329
lclavicle -1.82882e-014 1.11319e-014
lhumerus -10.9507 -26.5209 80.0782
lradius 23.8481
lwrist 11.467
lhand -9.96318 346.853
lfingers 7.12502
lthumb 16.0191 16.2112
rfemur 179.885 -217.386 -203.184
rtibia -5.00614
rfoot -57.8937 -23.0947
rtoes 21.6477
lfemur -10.5033 -30.1669 35.022
ltibia -6.3871
lfoot -41.07 -21.7579
ltoes 59.6065
545
root 8.77239 14.1996 -14.2681 193.425 -4.86211 -178.449
lowerback 4.86658 0.533968 1.07614
upperback 2.49884 0.635183 -0.719871
thorax -0.140661 0.281247 -1.37265
lowerneck -0.893138 -2.87048 -0.996809
upperneck -12.782 -4.30269 3.13067
head -3.9124 -2.52492 1.36426
rclavicle -1.0138e-014 -1.23246e-014
rhumerus 23.0469 9.13934 -50.6169
rradius 33.9055
rwrist 2.64338
rhand -11.4346 -38.0489
rfingers 7.12502
rthumb 14.6018 -427.515
lclavicle -1.0138e-014 -1.23246e-014
lhumerus -11.829 -26.4441 80.2017
lradius 24.1616
lwrist 11.7125
lhand -10.1026 346.753
lfingers 7.12502
lthumb 15.8848 16.1215
rfemur 180.733 -217.39 -202.684
rtibia -5.05379
rfoot -57.6182 -22.9558
rtoes 21.6918
lfemur -9.89556 -30.1603 34.4212
ltibia -6.31558
lfoot -41.0662 -20.8038
ltoes 59.2537
546
root 8.78135 14.2016 -14.33 192.961 -4.79225 -178.406
lowerback 4.62481 0.531225 0.948103
upperback 2.33655 0.637304 -0.730313
thorax -0.174141 0.285664 -1.31008
lowerneck -1.15624 -2.84246 -0.756627
upperneck -12.1355 -4.24082 2.87996
head -3.64368 -2.46893 1.21256
rclavicle -2.22639e-014 -2.78299e-015
rhumerus 22.5547 9.37417 -50.325
rradius 34.5291
rwrist 2.53999
rhand -11.6599 -38.6085
rfingers 7.12502
rthumb 14.3848 -428.09
lclavicle -2.22639e-014 -2.78299e-015
lhumerus -12.7886 -26.0491 80.3174
lradius 24.5715
lwrist 11.6733
lhand -10.3783 346.312
lfingers 7.12502
lthumb 15.6193 15.7011
rfemur 181.381 -217.397 -202.111
rtibia -4.98381
rfoot -57.2705 -22.8881
rtoes 21.1907
lfemur -9.16748 -30.2823 34.0107
ltibia -6.32528
lfoot -41.0422 -20.334
ltoes 59.036
547
root 8.78539 14.2014 -14.3939 192.63 -4.71833 -178.359
lowerback 4.09815 0.500585 0.887109
upperback 2.17148 0.606214 -0.769467
thorax -0.051212 0.27641 -1.3105
lowerneck -0.817174 -2.7766 -0.666013
upperneck -11.9884 -4.1165 2.89749
head -3.66 -2.3981 1.20393
rclavicle 1.94809e-014 0
rhumerus 22.1018 9.65373 -50.1666
rradius 35.0709
rwrist 2.42429
rhand -12.1976 -38.7452
rfingers 7.12502
rthumb 13.8666 -428.263
lclavicle 1.94809e-014 0
lhumerus -13.7012 -25.598 80.3747
lradius 24.8436
lwrist 11.4606
lhand -10.3395 345.885
lfingers 7.12502
lthumb 15.6567 15.2714
rfemur 181.862 -217.119 -201.697
rtibia -4.92433
rfoot -56.6303 -22.9906
rtoes 20.2235
lfemur -8.51422 -30.885 33.6532
ltibia -6.33681
lfoot -41.4557 -20.2332
ltoes 58.8031
548
root 8.77261 14.2078 -14.4397 192.392 -4.87066 -178.581
lowerback 3.70083 0.365183 0.835455
upperback 1.96244 0.435265 -0.895375
thorax -0.0483601 0.196134 -1.40181
lowerneck -0.679259 -2.74239 -0.909206
upperneck -11.7141 -4.01178 3.28363
head -3.57981 -2.33678 1.36637
rclavicle 3.50855e-014 -1.15295e-014
rhumerus 21.6354 9.91966 -50.0527
rradius 35.682
rwrist 2.17944
rhand -12.7996 -38.1298
rfingers 7.12502
rthumb 13.2864 -427.686
lclavicle 3.50855e-014 -1.15295e-014
lhumerus -14.5086 -25.2152 80.4014
lradius 25.0706
lwrist 11.2409
lhand -10.2084 345.761
lfingers 7.12502
lthumb 15.7829 15.1375
rfemur 182.524 -216.494 -201.549
rtibia -5.00758
rfoot -55.8816 -23.0608
rtoes 19.4719
lfemur -8.28278 -31.5073 33.1124
ltibia -6.20209
lfoot -41.8849 -19.8292
ltoes 58.4509
549
root 8.78793 14.2078 -14.4893 192.192 -4.7726 -178.408
lowerback 3.25729 0.388986 0.741269
upperback 1.73272 0.477503 -0.85334
thorax -0.0361796 0.221993 -1.30497
lowerneck -0.827509 -2.74143 -1.01855
upperneck -11.1704 -3.96223 3.48568
head -3.35726 -2.29399 1.43167
rclavicle -1.27222e-014 -2.78299e-015
rhumerus 20.9964 10.1745 -49.9128
rradius 36.3764
rwrist 1.8842
rhand -13.249 -37.6979
rfingers 7.12502
rthumb 12.8532 -427.282
lclavicle -1.27222e-014 -2.78299e-015
lhumerus -15.2981 -24.8094 80.4653
lradius 25.3361
lwrist 11.02
lhand -10.2326 345.805
lfingers 7.12502
lthumb 15.7597 15.1837
rfemur 182.931 -217.412 -200.94
rtibia -5.01603
rfoot -56.764 -22.9265
rtoes 20.016
lfemur -7.8164 -31.3793 33.0978
ltibia -6.23915
lfoot -41.8137 -19.3449
ltoes 58.1955
550
root 8.78513 14.2118 -14.5576 191.725 -4.70564 -178.197
lowerback 2.88531 0.41507 0.950369
upperback 1.63664 0.523822 -0.847384
thorax 0.0765748 0.25012 -1.41508
lowerneck -0.748188 -2.68491 -1.18813
upperneck -10.8459 -3.84025 3.75998
head -3.25526 -2.22175 1.54146
rclavicle 1.78906e-015 2.78299e-015
rhumerus 20.3282 10.3575 -49.7783
rradius 37.0824
rwrist 1.58596
rhand -13.4152 -37.6622
rfingers 7.12502
rthumb 12.693 -427.256
lclavicle 1.78906e-015 2.78299e-015
lhumerus -16.0181 -24.3537 80.5665
lradius 25.4875
lwrist 10.8658
lhand -10.2555 345.805
lfingers 7.12502
lthumb 15.7376 15.1848
rfemur 183.875 -218.116 -199.982
rtibia -5.17558
rfoot -57.1689 -22.9304
rtoes 20.0563
lfemur -6.90928 -31.8949 32.7631
ltibia -6.40407
lfoot -41.9862 -19.3026
ltoes 58.0447
551
root 8.78133 14.2161 -14.6341 191.127 -4.30132 -178.079
lowerback 2.54881 0.526186 0.970891
upperback 1.57969 0.675206 -0.856388
thorax 0.211527 0.328715 -1.43679
lowerneck -0.70477 -2.62007 -1.41319
upperneck -10.3958 -3.70636 4.0143
head -3.10456 -2.13625 1.65003
rclavicle 5.46658e-015 2.78299e-015
rhumerus 19.5036 10.5258 -49.8187
rradius 37.9145
rwrist 1.50523
rhand -13.3071 -37.4867
rfingers 7.12502
rthumb 12.7971 -427.074
lclavicle 5.46658e-015 2.78299e-015
lhumerus -16.8027 -23.8853 80.7137
lradius 25.6001
lwrist 10.7475
lhand -10.295 345.807
lfingers 7.12502
lthumb 15.6995 15.1896
rfemur 184.56 -218.555 -199.36
rtibia -5.21066
rfoot -56.878 -22.7957
rtoes 19.9271
lfemur -5.43278 -33.0859 31.9691
ltibia -6.70383
lfoot -42.875 -19.6178
ltoes 57.8899
552
root 8.78802 14.2136 -14.6896 190.913 -4.22117 -178.001
lowerback 1.98692 0.512372 0.888735
upperback 1.40645 0.662672 -0.817372
thorax 0.346492 0.326298 -1.3458
lowerneck -0.66913 -2.57132 -1.42326
upperneck -9.98431 -3.61866 3.95536
head -2.97371 -2.07235 1.62041
rclavicle -5.96354e-016 -1.82882e-014
rhumerus 18.6386 10.6994 -49.9934
rradius 38.7876
rwrist 1.57193
rhand -13.2442 -37.197
rfingers 7.12502
rthumb 12.8578 -426.781
lclavicle -5.96354e-016 -1.82882e-014
lhumerus -17.5498 -23.6338 80.8392
lradius 25.7597
lwrist 10.8057
lhand -10.4051 345.815
lfingers 7.12502
lthumb 15.5935 15.2069
rfemur 185.057 -219.006 -198.851
rtibia -5.20172
rfoot -57.2429 -22.4755
rtoes 20.2912
lfemur -4.90312 -33.1426 31.7426
ltibia -6.71817
lfoot -42.7083 -19.749
ltoes 57.8654
553
root 8.78832 14.2152 -14.7463 190.676 -4.18851 -177.76
lowerback 1.4897 0.514983 1.11751
upperback 1.21922 0.675208 -0.801994
thorax 0.436094 0.3378 -1.45463
lowerneck -0.369186 -2.49956 -1.34378
upperneck -9.84501 -3.50287 3.91326
head -2.98696 -2.0067 1.59397
rclavicle 6.4605e-015 1.27222e-014
rhumerus 17.8182 10.9205 -50.1093
rradius 39.5251
rwrist 1.51322
rhand -13.18 -36.9513
rfingers 7.12502
rthumb 12.9197 -426.531
lclavicle 6.4605e-015 1.27222e-014
lhumerus -18.2595 -23.623 80.9113
lradius 25.9167
lwrist 11.0844
lhand -10.4967 345.718
lfingers 7.12502
lthumb 15.5053 15.116
rfemur 185.623 -219.424 -198.076
rtibia -5.18283
rfoot -57.5214 -22.5044
rtoes 19.8936
lfemur -4.3099 -33.5278 31.6677
ltibia -6.84271
lfoot -42.945 -19.776
ltoes 57.7358
554
root 8.78121 14.2064 -14.8208 190.179 -4.15569 -177.825
lowerback 1.10908 0.530529 1.1362
upperback 1.10792 0.697364 -0.901393
thorax 0.537552 0.351247 -1.56395
lowerneck -0.299323 -2.52537 -1.25995
upperneck -9.37877 -3.508 3.91204
head -2.84234 -1.99308 1.56875
rclavicle -4.47266e-015 1.19271e-014
rhumerus 16.9334 11.3238 -50.0838
rradius 40.211
rwrist 1.27319
rhand -12.856 -36.8316
rfingers 7.12502
rthumb 13.232 -426.392
lclavicle -4.47266e-015 1.19271e-014
lhumerus -19.0675 -23.3497 81.0022
lradius 26.0568
lwrist 11.121
lhand -10.5292 345.574
lfingers 7.12502
lthumb 15.474 14.9751
rfemur 186.705 -219.315 -197.485
rtibia -5.41007
rfoot -57.0034 -22.7268
rtoes 18.7466
lfemur -3.19687 -34.6549 30.8846
ltibia -7.19309
lfoot -43.7055 -19.8495
ltoes 57.5524
555
root 8.77567 14.1905 -14.9014 189.608 -4.09049 -178.4
lowerback 0.589422 0.527272 0.54438
upperback 1.18175 0.686893 -1.07093
thorax 0.898837 0.34341 -1.40012
lowerneck -0.960311 -2.69524 -1.05711
upperneck -8.41527 -3.72779 3.65663
head -2.3994 -2.07134 1.41564
rclavicle -4.77083e-015 -2.34566e-014
rhumerus 16.2262 11.6888 -50.0536
rradius 40.8399
rwrist 1.03838
rhand -12.6997 -36.6482
rfingers 7.12502
rthumb 13.3827 -426.198
lclavicle -4.77083e-015 -2.34566e-014
lhumerus -19.6822 -22.725 81.0888
lradius 26.175
lwrist 10.9709
lhand -10.4776 345.714
lfingers 7.12502
lthumb 15.5237 15.111
rfemur 188.028 -219.102 -197.442
rtibia -5.82834
rfoot -56.3949 -22.7974
rtoes 17.795
lfemur -1.87012 -36.2124 29.3352
ltibia -7.56731
lfoot -44.9092 -19.7872
ltoes 57.2293
556
root 8.78537 14.1938 -14.9448 189.526 -3.95271 -178.575
lowerback 0.165845 0.552962 0.169118
upperback 0.952182 0.726165 -1.09381
thorax 0.897776 0.361193 -1.2099
lowerneck -0.374413 -2.56311 -1.50277
upperneck -8.47573 -3.50967 4.13166
head -2.51838 -1.9604 1.65829
rclavicle -7.95139e-016 2.74323e-014
rhumerus 15.338 12.0463 -50.1692
rradius 41.5635
rwrist 0.880953
rhand -12.6678 -36.3817
rfingers 7.12502
rthumb 13.4134 -425.93
lclavicle -7.95139e-016 2.74323e-014
lhumerus -20.2998 -22.2668 81.2207
lradius 26.1877
lwrist 11.0488
lhand -10.5834 345.841
lfingers 7.12502
lthumb 15.4218 15.2461
rfemur 188.321 -219.688 -197.325
rtibia -5.82524
rfoot -57.0071 -22.606
rtoes 18.4569
lfemur -1.34739 -37.1449 28.8462
ltibia -7.73479
lfoot -46.1507 -19.3625
ltoes 56.7247
